<svg xmlns="http://www.w3.org/2000/svg" xmlns:xlink="http://www.w3.org/1999/xlink" version="1.1" x="0px" y="0px" viewBox="0 0 200 250" style="enable-background:new 0 0 200 200;" xml:space="preserve"><path d="M155.7,141.7c-7.9-8.3-16.2-16.4-24.2-24.3c-3.4-3.3-6.7-6.6-10.1-9.9c0.3-0.5,0.6-1,0.9-1.4c9.4-15.7,7.9-35.9-3.8-50.2  c-11.7-14.2-31.8-19.6-48.9-13.1c-17,6.4-28.1,22.5-28.4,40.9v0.1c0.3,21.1,15.2,39.1,35.4,42.8c10,1.8,20.3,0.2,29.2-4.7l17.7,17.7  c1.9,1.9,3.9,4,5.8,6c3.9,4,7.8,8.2,12.1,11.9c2.1,1.9,4.3,2.6,6.5,2.6c2.9,0,5.5-1.4,7.4-3.3C159.1,152.9,160.4,146.5,155.7,141.7z   M73.4,116.5c-13.7-4.8-23-18-23.3-32.9c0.3-16.6,12.1-31,28.1-34.2c14.1-2.8,29.2,3.9,36.6,16.3c7.5,12.5,6.2,29-3.1,40.1  C102.5,117,87.1,121.2,73.4,116.5z M149.4,150.5c-0.4,0.4-1.1,0.8-2,0.4c-0.7-0.4-1.5-1.3-2.2-2.2c-0.4-0.5-0.8-1-1.2-1.4  l-30.6-30.6c0.9-0.8,1.8-1.6,2.6-2.4l32.3,32.3c0.2,0.2,0.4,0.4,0.7,0.6c0.3,0.3,0.8,0.7,0.9,0.9  C150.3,148.9,149.9,149.9,149.4,150.5z"/><text x="0" y="215" fill="#000000" font-size="5px" font-weight="bold" font-family="'Helvetica Neue', Helvetica, Arial-Unicode, Arial, Sans-serif">Created by Muhammad Rizky Klinsman</text><text x="0" y="220" fill="#000000" font-size="5px" font-weight="bold" font-family="'Helvetica Neue', Helvetica, Arial-Unicode, Arial, Sans-serif">from the Noun Project</text></svg>